<?xml version="1.0" standalone="no"?>
<!DOCTYPE svg PUBLIC "-//W3C//DTD SVG 20010904//EN"
 "http://www.w3.org/TR/2001/REC-SVG-20010904/DTD/svg10.dtd">
<svg version="1.0" xmlns="http://www.w3.org/2000/svg"
 width="1120.000000pt" height="1120.000000pt" viewBox="0 0 1120.000000 1120.000000"
 preserveAspectRatio="xMidYMid meet">
<metadata>
Created by potrace 1.14, written by Peter Selinger 2001-2017
</metadata>
<g transform="translate(0.000000,1120.000000) scale(0.100000,-0.100000)"
fill="#000000" stroke="none">
<path d="M9755 8092 c-36 -8 -62 -32 -62 -57 0 -32 53 -93 130 -148 34 -25 80
-64 102 -88 49 -53 111 -139 107 -147 -2 -2 1 -8 7 -12 26 -16 195 -356 247
-499 14 -36 29 -75 34 -86 10 -22 55 -160 89 -271 20 -66 65 -254 76 -319 48
-274 56 -362 58 -640 2 -303 -17 -471 -87 -767 -31 -130 -114 -380 -130 -390
-6 -4 -8 -8 -4 -8 14 0 -130 -301 -173 -362 -11 -14 -19 -29 -19 -33 0 -9
-113 -180 -122 -183 -4 -2 -8 -9 -8 -14 0 -6 -7 -18 -15 -27 -8 -9 -48 -56
-88 -106 -76 -93 -172 -192 -248 -258 -24 -20 -57 -48 -74 -63 -98 -83 -447
-283 -521 -298 -11 -3 -32 -10 -49 -17 -16 -7 -33 -13 -37 -14 -5 -2 -9 -3
-10 -5 -2 -1 -10 -3 -18 -5 -8 -2 -58 -15 -110 -29 -94 -25 -136 -34 -195 -42
-16 -2 -50 -7 -75 -10 -57 -9 -234 -9 -280 -1 -72 13 -96 18 -145 33 -27 8
-52 14 -55 14 -71 2 -468 159 -524 209 -10 9 -21 16 -25 15 -6 -1 -96 56 -131
83 -134 101 -339 301 -466 453 -107 128 -221 303 -294 450 -71 144 -90 186
-90 198 0 6 -4 12 -10 12 -5 0 -10 8 -10 18 0 9 -7 31 -16 47 -24 45 -89 212
-135 343 -36 104 -44 130 -52 167 -2 6 -5 15 -8 20 -5 9 -12 32 -25 80 -54
216 -84 335 -88 355 -2 14 -9 45 -14 70 -6 25 -14 65 -17 90 -4 24 -8 47 -10
50 -2 3 -6 23 -9 45 -11 76 -18 120 -23 140 -4 22 -9 54 -17 125 -3 25 -8 56
-10 70 -5 24 -13 87 -21 160 -12 103 -16 127 -30 184 -38 148 -75 90 -76 -123
-1 -194 13 -374 46 -601 8 -52 17 -115 20 -140 4 -25 9 -52 12 -60 3 -8 7 -28
9 -45 4 -33 3 -29 34 -165 40 -174 58 -244 75 -305 9 -33 18 -64 19 -70 2 -5
6 -17 9 -25 5 -13 38 -122 43 -142 1 -5 3 -10 4 -13 1 -3 3 -8 4 -12 7 -33 88
-257 111 -308 7 -16 30 -70 51 -120 46 -113 141 -308 193 -400 22 -38 45 -79
51 -90 12 -25 33 -58 40 -65 3 -3 22 -30 42 -61 91 -139 290 -360 428 -475 82
-68 224 -170 304 -218 83 -50 311 -164 343 -171 10 -2 48 -16 86 -29 37 -14
68 -25 70 -25 1 0 9 -2 17 -4 16 -6 103 -26 135 -33 73 -14 137 -25 185 -31
74 -10 255 -9 305 1 22 4 55 9 74 12 65 9 215 45 295 71 45 15 83 28 86 28 9
3 42 17 125 52 198 85 407 215 604 377 34 28 229 223 261 261 221 264 370 526
535 940 4 11 9 26 11 33 3 14 31 100 48 147 10 29 13 39 21 80 2 11 13 54 24
95 11 41 22 86 24 100 3 14 12 63 20 110 40 219 52 373 50 640 -1 183 -5 278
-18 375 -2 17 -7 55 -10 85 -7 58 -9 73 -25 160 -13 73 -19 100 -25 130 -3 14
-7 34 -10 45 -127 595 -504 1333 -739 1444 -39 19 -154 26 -211 13z"/>
<path d="M1153 7863 c-56 -56 -157 -196 -184 -255 -7 -16 -16 -28 -21 -28 -4
0 -8 -4 -8 -9 0 -12 -82 -155 -95 -163 -5 -4 -7 -8 -3 -8 5 0 -13 -38 -37 -85
-50 -93 -146 -307 -190 -420 -14 -38 -30 -79 -35 -90 -21 -49 -91 -259 -115
-345 -15 -52 -30 -102 -33 -110 -3 -8 -6 -19 -7 -25 -2 -5 -8 -30 -15 -55 -7
-25 -14 -53 -16 -63 -2 -10 -6 -27 -9 -37 -3 -10 -8 -29 -10 -42 -4 -21 -8
-37 -20 -95 -3 -13 -7 -33 -10 -45 -9 -45 -15 -74 -20 -108 -3 -19 -8 -46 -10
-60 -3 -14 -7 -38 -9 -55 -2 -16 -9 -66 -15 -111 -32 -229 -42 -513 -27 -737
4 -60 9 -116 11 -125 1 -10 6 -39 9 -67 20 -153 69 -385 100 -473 8 -23 15
-45 15 -47 1 -40 140 -391 180 -455 6 -8 20 -35 32 -60 29 -57 144 -232 206
-311 59 -76 201 -221 268 -274 28 -22 52 -43 55 -46 15 -18 157 -108 235 -149
95 -50 267 -118 313 -124 15 -2 38 -6 52 -9 80 -19 187 -26 380 -26 198 0 280
3 280 9 0 3 17 5 38 6 36 0 116 10 157 19 11 3 31 7 45 9 45 7 191 46 233 63
179 67 298 123 445 210 84 50 268 175 301 204 7 7 52 44 100 83 47 38 104 86
125 105 74 67 291 287 356 361 36 41 79 89 95 107 17 18 35 39 40 46 6 7 28
35 50 62 21 28 42 52 45 55 3 3 19 23 35 45 17 22 32 42 35 45 15 13 80 111
80 119 0 5 4 11 8 13 9 4 138 228 147 257 3 12 11 21 16 21 5 0 9 5 9 10 0 6
33 79 74 163 62 128 104 222 178 397 5 14 16 39 23 55 25 55 123 331 141 395
2 8 15 56 29 105 24 86 58 241 70 315 3 19 10 58 15 85 5 28 12 73 15 100 4
28 8 57 10 65 2 8 6 33 9 55 3 22 8 67 12 100 14 108 11 342 -4 357 -26 25
-68 -49 -87 -154 -8 -44 -15 -75 -31 -147 -9 -36 -17 -73 -19 -81 -3 -13 -16
-66 -29 -120 -2 -8 -14 -51 -25 -95 -12 -44 -24 -89 -26 -100 -3 -11 -17 -58
-32 -105 -15 -47 -27 -87 -28 -90 -4 -24 -40 -128 -48 -137 -5 -7 -7 -13 -3
-13 3 0 -1 -17 -10 -37 -9 -21 -17 -42 -18 -48 -3 -9 -8 -23 -23 -62 -3 -10
-7 -20 -8 -23 -1 -3 -5 -14 -10 -25 -4 -11 -28 -69 -52 -130 -71 -175 -223
-477 -328 -650 -53 -88 -101 -161 -106 -163 -5 -2 -9 -8 -9 -13 0 -10 -62
-103 -72 -107 -5 -2 -8 -8 -8 -13 0 -5 -7 -17 -16 -26 -9 -10 -43 -54 -76 -98
-107 -143 -247 -303 -389 -444 -62 -62 -113 -110 -220 -206 -37 -34 -105 -89
-144 -117 -5 -4 -26 -20 -45 -36 -19 -16 -57 -44 -85 -62 -27 -19 -52 -36 -55
-39 -6 -7 -9 -9 -155 -97 -105 -64 -344 -184 -366 -184 -6 0 -20 -5 -32 -12
-12 -7 -26 -13 -32 -14 -5 -1 -41 -13 -80 -27 -38 -13 -72 -24 -75 -25 -3 0
-12 -3 -20 -6 -13 -4 -104 -24 -150 -32 -25 -5 -102 -15 -145 -20 -62 -7 -265
-7 -310 0 -45 7 -135 23 -179 32 -104 21 -326 115 -436 186 -122 78 -267 210
-356 323 -21 27 -43 54 -47 60 -60 76 -257 440 -257 475 0 6 -4 18 -9 28 -41
76 -120 336 -123 402 0 8 -4 36 -9 61 -11 63 -20 158 -24 261 -2 48 -5 91 -7
95 -6 13 -2 469 6 616 6 125 9 160 20 262 2 17 9 58 15 93 7 35 14 75 16 90 2
15 18 83 35 152 17 69 33 136 36 149 3 14 7 28 10 33 3 4 7 18 10 30 7 32 8
37 27 93 45 141 148 423 164 449 4 6 8 16 9 21 3 20 117 272 170 375 64 125
96 181 157 277 69 108 107 189 114 242 6 54 -6 70 -61 78 -31 4 -40 -1 -93
-54z"/>
<path d="M2440 5011 c-50 -16 -93 -43 -134 -85 -48 -50 -78 -86 -71 -86 3 0
-4 -19 -16 -41 -22 -44 -26 -57 -35 -129 -8 -55 -8 -55 1 -105 13 -77 52 -141
117 -191 22 -17 110 -35 148 -31 95 11 172 93 206 222 15 57 12 231 -5 285
-15 49 -65 126 -94 145 -30 20 -83 27 -117 16z"/>
<path d="M8735 4810 c-141 -31 -225 -176 -219 -375 7 -190 44 -254 175 -298
62 -21 101 -10 160 45 139 132 204 356 140 489 -48 101 -158 161 -256 139z"/>
</g>
</svg>
