<svg xmlns="http://www.w3.org/2000/svg" xmlns:xlink="http://www.w3.org/1999/xlink" version="1.1" width="256" height="256" viewBox="0 0 256 256" xml:space="preserve">

<defs>
</defs>
<g style="stroke: none; stroke-width: 0; stroke-dasharray: none; stroke-linecap: butt; stroke-linejoin: miter; stroke-miterlimit: 10; fill: none; fill-rule: nonzero; opacity: 1;" transform="translate(1.4065934065934016 1.4065934065934016) scale(2.81 2.81)" >
	<path fill="currentColor" d="M 72.268 24.658 c -3.527 0 -6.397 -2.87 -6.397 -6.397 c 0 -3.528 2.87 -6.398 6.397 -6.398 c 3.528 0 6.398 2.87 6.398 6.398 C 78.666 21.788 75.796 24.658 72.268 24.658 z M 72.268 15.863 c -1.322 0 -2.397 1.076 -2.397 2.398 c 0 1.322 1.075 2.397 2.397 2.397 s 2.398 -1.076 2.398 -2.397 C 74.666 16.938 73.59 15.863 72.268 15.863 z" style="stroke: none; stroke-width: 1; stroke-dasharray: none; stroke-linecap: butt; stroke-linejoin: miter; stroke-miterlimit: 10;  fill-rule: nonzero; opacity: 1;" transform=" matrix(1 0 0 1 0 0) " stroke-linecap="round" />
	<path fill="currentColor" d="M 79.28 90 H 10.72 C 4.809 90 0 85.191 0 79.28 V 10.72 C 0 4.809 4.809 0 10.72 0 H 79.28 C 85.191 0 90 4.809 90 10.72 V 79.28 C 90 85.191 85.191 90 79.28 90 z M 10.72 4 C 7.015 4 4 7.015 4 10.72 V 79.28 C 4 82.985 7.015 86 10.72 86 H 79.28 c 3.705 0 6.72 -3.015 6.72 -6.72 V 10.72 C 86 7.015 82.985 4 79.28 4 H 10.72 z" style="stroke: none; stroke-width: 1; stroke-dasharray: none; stroke-linecap: butt; stroke-linejoin: miter; stroke-miterlimit: 10;  fill-rule: nonzero; opacity: 1;" transform=" matrix(1 0 0 1 0 0) " stroke-linecap="round" />
	<path fill="currentColor" d="M 45.265 69.253 c -13.228 0 -23.989 -10.762 -23.989 -23.989 c 0 -13.228 10.761 -23.989 23.989 -23.989 s 23.988 10.761 23.988 23.989 C 69.253 58.491 58.492 69.253 45.265 69.253 z M 45.265 25.275 c -11.022 0 -19.989 8.967 -19.989 19.989 s 8.967 19.989 19.989 19.989 c 11.021 0 19.988 -8.967 19.988 -19.989 S 56.286 25.275 45.265 25.275 z" style="stroke: none; stroke-width: 1; stroke-dasharray: none; stroke-linecap: butt; stroke-linejoin: miter; stroke-miterlimit: 10;  fill-rule: nonzero; opacity: 1;" transform=" matrix(1 0 0 1 0 0) " stroke-linecap="round" />
</g>
</svg>