<?xml version="1.0" encoding="UTF-8" standalone="no"?>
<!-- Created with Inkscape (http://www.inkscape.org/) -->

<svg
   version="1.1"
   id="svg1"
   width="355"
   height="389"
   viewBox="0 0 355 389"
   sodipodi:docname="Mamila.svg"
   inkscape:version="1.3.1 (91b66b0783, 2023-11-16)"
   xmlns:inkscape="http://www.inkscape.org/namespaces/inkscape"
   xmlns:sodipodi="http://sodipodi.sourceforge.net/DTD/sodipodi-0.dtd"
   xmlns="http://www.w3.org/2000/svg"
   xmlns:svg="http://www.w3.org/2000/svg">
  <defs
     id="defs1" />
  <sodipodi:namedview
     id="namedview1"
     pagecolor="#ffffff"
     bordercolor="#000000"
     borderopacity="0.25"
     inkscape:showpageshadow="2"
     inkscape:pageopacity="0.0"
     inkscape:pagecheckerboard="0"
     inkscape:deskcolor="#d1d1d1"
     inkscape:zoom="1.08125"
     inkscape:cx="239.53757"
     inkscape:cy="240"
     inkscape:window-width="1366"
     inkscape:window-height="715"
     inkscape:window-x="-8"
     inkscape:window-y="-8"
     inkscape:window-maximized="1"
     inkscape:current-layer="g1" />
  <g
     inkscape:groupmode="layer"
     inkscape:label="Image"
     id="g1">
    <path
       style="fill:#000000"
       d="m 85.47722,386.61191 c -0.92885,-2.5243 -3.455958,-11.27253 -3.466458,-12 -0.006,-0.4125 0.39759,-0.75 0.896769,-0.75 0.49917,0 1.484239,2.25 2.189049,5 0.704799,2.75 1.567379,5 1.916839,5 0.349459,0 1.299189,-2.1375 2.110508,-4.75 0.81131,-2.6125 1.902819,-4.67354 2.425558,-4.58009 0.52275,0.0934 1.686589,2.56845 2.586319,5.5 l 1.635858,5.33009 1.685089,-5.75 c 0.92681,-3.1625 2.151309,-5.75 2.721129,-5.75 0.56981,0 0.7706,0.69169 0.44619,1.53708 -0.32441,0.8454 -1.30448,3.9954 -2.177939,7 -0.87347,3.00461 -2.124519,5.46292 -2.780119,5.46292 -0.655599,0 -1.882128,-2.3625 -2.725628,-5.25 l -1.533619,-5.25 -1.783778,5.25 c -1.737289,5.11316 -3.212448,6.53646 -4.145767,4 z m 18.93456,-4.43252 c -0.9258,-3.19961 -1.89534,-6.37998 -2.15455,-7.06748 -0.2592,-0.6875 -0.005,-1.25 0.56475,-1.25 0.56982,0 1.81379,2.5875 2.76438,5.75 l 1.72834,5.75 1.70061,-5.45267 c 0.93533,-2.99896 2.15141,-5.60293 2.7024,-5.78659 0.55099,-0.18367 1.58123,1.82003 2.28943,4.45266 1.85557,6.89782 2.50706,7.03488 3.89789,0.82 0.68108,-3.04337 1.65605,-5.5334 2.16661,-5.5334 1.25918,0 1.18342,0.58814 -0.96078,7.45811 -1.02279,3.27696 -2.32239,6.11237 -2.888,6.30091 -0.56561,0.18854 -1.82076,-2.04261 -2.78921,-4.95811 l -1.76081,-5.30091 -1.65224,4.93859 c -0.90873,2.71623 -2.16373,5.10909 -2.7889,5.31748 -0.65241,0.21747 -1.85379,-2.09956 -2.81992,-5.43859 z m 20.27075,0.34463 c -1.76494,-5.59903 -2.20509,-9.50157 -0.93262,-8.26891 0.4125,0.39959 1.46889,3.06209 2.34753,5.91667 l 1.59753,5.19013 1.72343,-5.75 c 0.94789,-3.1625 2.10956,-5.75 2.58151,-5.75 0.47195,0 1.63402,2.5875 2.58238,5.75 l 1.72428,5.75 1.34587,-4.5 c 1.94638,-6.50784 2.32571,-7.35508 2.99389,-6.6869 1.05341,1.05341 -2.86751,13.6869 -4.24785,13.6869 -1.19313,0 -3.37965,-5.67674 -3.39299,-8.80902 -0.0112,-2.62896 -1.7642,-0.12474 -2.99837,4.28326 -0.69692,2.48917 -1.80147,4.52576 -2.45455,4.52576 -0.65308,0 -1.9446,-2.40205 -2.87004,-5.33789 z m 19.31737,4.33789 c 0,-0.55 0.70156,-1 1.55902,-1 0.85746,0 1.2809,0.45 0.94098,1 -0.33992,0.55 -1.04148,1 -1.55902,1 -0.51754,0 -0.94098,-0.45 -0.94098,-1 z m 6.79378,0.31653 c -0.22356,-0.44909 -0.38112,-3.45344 -0.35013,-6.67634 l 0.0563,-5.8598 3.93513,-0.359 c 2.16432,-0.19745 4.54589,0.14789 5.29238,0.76742 1.0084,0.8369 1.65479,0.82889 2.51487,-0.0312 1.50577,-1.50578 5.03224,-1.48299 6.55761,0.0424 1.41419,1.41419 1.63648,12.8 0.2499,12.8 -0.52255,0 -1.08505,-2.5875 -1.25,-5.75 -0.2656,-5.09239 -0.55704,-5.78652 -2.54829,-6.06934 -2.61636,-0.37162 -4.25156,2.85309 -4.25156,8.38443 0,5.78158 -1.88054,3.81104 -2.2001,-2.30538 -0.24351,-4.66096 -0.64892,-5.80675 -2.15612,-6.09378 -2.75066,-0.52384 -3.81276,1.09844 -4.08961,6.24655 -0.24368,4.53138 -0.95686,6.51814 -1.76038,4.90404 z m 23.89992,0.0439 c -1.13942,-1.13941 -0.78619,-5.03955 0.55628,-6.14212 0.6875,-0.56464 2.37039,-1.18224 3.73977,-1.37244 1.46626,-0.20366 2.63646,-1.11484 2.84657,-2.2165 0.30636,-1.60634 -0.15385,-1.81107 -3.25685,-1.44881 -2.24725,0.26236 -3.48352,0.0244 -3.26954,-0.62932 0.41854,-1.2787 5.74344,-1.86756 7.34009,-0.81171 1.37532,0.90949 1.62521,2.31596 1.46763,8.26052 l -0.11929,4.5 -4.30548,0.27705 c -2.36801,0.15238 -4.61764,-0.0351 -4.99918,-0.41667 z m 6.7403,-2.56965 c 0.85108,-1.2151 1.16669,-2.59001 0.70134,-3.05536 -1.39802,-1.39802 -6.13536,0.3056 -6.13536,2.20637 0,3.66419 3.12067,4.15175 5.43402,0.84899 z m 7.56597,-3.79078 c 0,-3.85 0.40186,-7 0.89301,-7 1.41132,0 1.74135,2.06773 1.31678,8.25 -0.5566,8.10462 -2.20979,7.16947 -2.20979,-1.25 z m 8.99999,2.58179 c 0,-5.98322 -0.77295,-7.58179 -3.66601,-7.58179 -1.38004,0 -2.18183,-0.43718 -1.83399,-1 0.80217,-1.29794 5.19905,-1.29596 6.00167,0.003 0.41425,0.67028 1.24086,0.67028 2.49328,0 2.93417,-1.57032 5.83865,-1.18212 6.96986,0.93156 1.32589,2.47715 1.35385,12.06544 0.0352,12.06544 -0.55,0 -1,-1.9882 -1,-4.41821 0,-5.90928 -0.77208,-7.58179 -3.49999,-7.58179 -2.72792,0 -3.5,1.67251 -3.5,7.58179 0,2.43001 -0.45,4.41821 -1,4.41821 -0.55,0 -1,-1.9882 -1,-4.41821 z m 14.99999,-2.58179 c 0,-4 0.42857,-7 1,-7 0.57143,0 1,3 1,7 0,4 -0.42857,7 -1,7 -0.57143,0 -1,-3 -1,-7 z m 6.99999,-3.5 c 0,-6.33333 0.39683,-10.5 1,-10.5 0.60317,0 1,4.16667 1,10.5 0,6.33333 -0.39683,10.5 -1,10.5 -0.60317,0 -1,-4.16667 -1,-10.5 z m 6.38459,9.05984 c -1.38863,-3.61872 0.50209,-5.89224 5.83011,-7.01047 4.19989,-0.88146 2.53149,-3.8553 -1.87435,-3.34094 -2.06768,0.24139 -3.24123,-0.0131 -3.0304,-0.65724 0.18924,-0.57815 1.86456,-1.19911 3.72292,-1.3799 4.41733,-0.42974 5.96712,1.72657 5.96712,8.30237 v 5.09141 l -5.03083,0.21889 c -3.61385,0.15724 -5.1868,-0.18754 -5.58457,-1.22412 z m 7.04944,-1.76911 c 1.91144,-2.72898 0.71533,-4.11731 -2.78939,-3.23768 -3.85021,0.96634 -3.44683,4.91303 0.54866,5.368 0.38131,0.0434 1.38964,-0.91522 2.24073,-2.13032 z m 6.75763,2.13427 c 0.19708,-0.59125 0.78583,-1.075 1.30833,-1.075 0.5225,0 1.11125,0.48375 1.30833,1.075 0.19709,0.59125 -0.39166,1.075 -1.30833,1.075 -0.91667,0 -1.50542,-0.48375 -1.30833,-1.075 z m 5.80833,0.12869 c 0,-0.58372 1.44505,-0.94709 3.2112,-0.8075 4.48945,0.35484 5.19114,-2.86137 0.94706,-4.34086 -3.22345,-1.12371 -4.44263,-3.0007 -3.51657,-5.41396 0.72241,-1.88259 4.77436,-2.97104 7.10606,-1.90885 1.41132,0.64291 1.16856,0.87343 -1.24776,1.1848 -4.78633,0.61676 -5.12042,1.93407 -1.09317,4.31021 2.98116,1.75893 3.64174,2.69292 3.397,4.803 -0.26785,2.30924 -0.80717,2.65589 -4.55383,2.92697 -2.52347,0.18258 -4.24999,-0.12365 -4.24999,-0.75381 z m 12.99999,-9.55369 c 0,-6.33333 0.39683,-10.5 1,-10.5 0.56711,0 1,2.89872 1,6.69617 v 6.69616 l 3.48501,-3.37781 c 4.23764,-4.10728 6.03353,-3.20899 2.00047,1.00062 l -2.8687,2.99428 3.38777,3.49529 c 4.28434,4.42031 1.82538,4.69203 -2.70695,0.29912 l -3.2976,-3.19616 v 3.19616 c 0,1.75789 -0.45,3.19617 -1,3.19617 -0.60317,0 -1,-4.16667 -1,-10.5 z m -45.41702,-7.36579 c -0.43077,-0.697 -0.51316,-1.53733 -0.18309,-1.86741 0.89497,-0.89496 1.87077,0.4213 1.38739,1.87145 -0.33872,1.01617 -0.57427,1.01538 -1.2043,-0.004 z M 19.999986,342.36191 v -9.5 h 3.928577 c 4.649667,0 7.071415,2.03735 7.071415,5.94898 0,3.31514 -1.540059,4.80903 -5.845296,5.67008 -2.791808,0.55836 -3.154698,1.01916 -3.154698,4.00594 0,1.85625 -0.449999,3.375 -0.999999,3.375 -0.596489,0 -0.999999,-3.83333 -0.999999,-9.5 z m 8.394024,-1.75 c 1.510499,-2.41239 -0.33762,-5.15945 -3.744887,-5.56642 -2.489229,-0.29732 -2.649139,-0.067 -2.649139,3.81642 0,3.88337 0.15991,4.11374 2.649139,3.81642 1.457029,-0.17403 3.142227,-1.10392 3.744887,-2.06642 z m 8.060514,8.79545 c -3.467957,-3.46796 -3.467957,-10.62294 0,-14.0909 3.409218,-3.40923 9.316454,-3.39165 12.537791,0.0373 3.508908,3.73506 3.313608,10.98805 -0.381449,14.1664 -3.698398,3.18124 -8.910674,3.13287 -12.156342,-0.11281 z m 10.716703,-1.20044 c 2.354408,-2.13071 2.457938,-8.99227 0.17375,-11.51627 -2.377649,-2.62727 -7.825795,-2.4081 -9.788304,0.39377 -3.611737,5.15649 -0.825619,12.77749 4.671257,12.77749 1.713009,0 3.937487,-0.74474 4.943297,-1.65499 z m 8.276694,2.37998 c -0.29585,-0.77097 -0.40517,-4.962 -0.24293,-9.31338 l 0.29497,-7.91161 3.848087,-0.31621 c 6.465686,-0.53131 9.929493,4.44504 5.735736,8.24034 -1.882709,1.70384 -1.873989,1.79628 0.5,5.29454 1.328889,1.95823 2.416168,3.94763 2.416168,4.42088 0,1.83032 -1.612299,0.62218 -4.240497,-3.1775 -3.468988,-5.01526 -5.759496,-5.22249 -5.759496,-0.52107 0,3.60138 -1.626889,5.6949 -2.552038,3.28401 z m 8.432054,-10.50081 c 1.341529,-2.50667 -0.44254,-5.22418 -3.429708,-5.22418 -2.133688,0 -2.450308,0.45226 -2.450308,3.5 0,3.05334 0.31455,3.5 2.464818,3.5 1.355649,0 2.892488,-0.79912 3.415198,-1.77582 z m 6.119976,10.96917 c 0,-2.04185 6.647185,-17.57575 7.666284,-17.91545 0.65723,-0.21907 2.520548,3.1664 4.358917,7.91973 1.766029,4.5663 3.430978,8.86487 3.699867,9.55237 0.26889,0.6875 -0.0204,1.25 -0.642839,1.25 -0.62246,0 -1.559469,-1.125 -2.082239,-2.5 -0.815829,-2.1458 -1.576208,-2.5 -5.366836,-2.5 -3.876777,0 -4.492997,0.30544 -5.043796,2.5 -0.57244,2.28075 -2.589358,3.59975 -2.589358,1.69335 z m 10.433852,-8.44335 c -0.385509,-1.2375 -1.143109,-3.375 -1.683559,-4.75 l -0.982629,-2.5 -1.307759,3.5 c -1.976749,5.29045 -1.786649,6 1.607479,6 2.722008,0 2.988458,-0.25334 2.366468,-2.25 z m 8.566134,-0.2466 v -9.75106 l 5.666126,0.46988 c 6.800287,0.56393 9.333867,2.9615 9.333867,8.8328 0,5.80957 -3.3023,9.07544 -9.808836,9.70063 l -5.191157,0.49881 z m 10.927412,4.86174 c 4.347491,-5.52694 1.346011,-12.36514 -5.427416,-12.36514 h -3.499997 v 7.5 7.5 h 3.427417 c 2.511629,0 3.981198,-0.70402 5.499996,-2.63486 z m 8.072571,-4.86514 v -9.5 h 4.44098 c 2.44254,0 4.7191,0.45 5.05902,1 0.37325,0.60393 -0.98962,1 -3.44098,1 -3.84336,0 -4.05902,0.1594 -4.05902,3 0,2.7619 0.27778,3 3.5,3 1.925,0 3.5,0.45 3.5,1 0,0.55 -1.575,1 -3.5,1 -3.33333,0 -3.5,0.16667 -3.5,3.5 0,3.41667 0.0952,3.5 4,3.5 2.2,0 4,0.45 4,1 0,0.55 -2.25,1 -5,1 h -5 z m 13.99999,0 c 0,-6.94022 0.33681,-9.49652 1.25,-9.48708 0.6875,0.007 3.5,3.47481 6.25,7.70602 l 5,7.69311 0.29205,-7.70602 c 0.41922,-11.061 2.20794,-9.60765 2.20794,1.79397 0,7.2218 -0.31786,9.5 -1.32546,9.5 -0.72901,0 -3.5415,-3.4875 -6.24999,-7.75 l -4.92454,-7.75 -0.29206,7.75 c -0.41812,11.09492 -2.20794,9.67632 -2.20794,-1.75 z m 19.66666,8.83333 c -1.39348,-1.39347 -0.53407,-1.83333 3.58204,-1.83333 3.49079,0 4.30164,-0.35777 4.53278,-2 0.20399,-1.44928 -0.96629,-2.75046 -4.24999,-4.72538 -4.91928,-2.95861 -5.72638,-5.38329 -2.70276,-8.11963 2.0055,-1.81496 7.68902,-2.24426 8.67125,-0.65499 0.3722,0.60223 -0.95395,1 -3.33398,1 -6.40586,0 -6.4456,3.79639 -0.0738,7.04706 3.1283,1.59595 3.90774,2.54802 3.90774,4.77326 0,1.52883 -0.54,3.31968 -1.2,3.97968 -1.26973,1.26973 -8.0037,1.66295 -9.13332,0.53333 z m 18.33332,-7.83333 c 0,-8.4 -0.0294,-8.5 -2.5,-8.5 -1.375,0 -2.5,-0.45 -2.5,-1 0,-0.55445 2.64699,-1 5.94098,-1 3.26753,0 6.21909,0.45 6.55901,1 0.36058,0.58342 -0.65628,1 -2.44098,1 h -3.05901 v 8.5 c 0,5 -0.41176,8.5 -1,8.5 -0.58824,0 -1,-3.5 -1,-8.5 z m 12.13684,-0.26926 c -3.4323,-9.59521 -3.57014,-10.23074 -2.21897,-10.23074 0.50483,0 2.11679,3.6 3.58212,8 1.46533,4.4 2.81533,8 3,8 0.18467,0 1.53466,-3.6 2.99999,-8 1.46533,-4.4 3.07729,-8 3.58212,-8 1.35117,0 1.21333,0.63553 -2.21897,10.23074 -1.72526,4.82309 -3.68868,8.76926 -4.36314,8.76926 -0.67447,0 -2.63789,-3.94617 -4.36315,-8.76926 z m 13.86314,7.76926 c 0,-0.55 0.4093,-1 0.90955,-1 1.16796,0 1.14016,-13.85124 -0.0292,-14.57398 -1.73659,-1.07324 -0.83342,-2.42602 1.61965,-2.42602 2.55432,0 3.33642,1.36503 1.45008,2.53085 -1.22947,0.75986 -1.04345,13.29341 0.20878,14.06733 1.70206,1.05194 0.76975,2.40182 -1.65886,2.40182 -1.375,0 -2.5,-0.45 -2.5,-1 z m 15.99999,-8.5 v -9.5 h 3.56573 c 5.39795,0 7.43426,1.50061 7.43426,5.47848 0,3.7938 -2.81178,6.52152 -6.72251,6.52152 -1.93617,0 -2.27748,0.52452 -2.27748,3.5 0,1.925 -0.45,3.5 -1,3.5 -0.59649,0 -1,-3.83333 -1,-9.5 z m 7.95431,-0.94496 c 0.65956,-0.79472 1.05216,-2.48222 0.87244,-3.75 -0.25304,-1.78497 -1.06003,-2.37574 -3.57676,-2.6184 -3.18485,-0.30708 -3.24999,-0.23191 -3.24999,3.75 0,3.61178 0.26423,4.06336 2.37755,4.06336 1.30765,0 2.91719,-0.65023 3.57676,-1.44496 z m 7.04568,0.94496 v -9.5 h 3.56573 c 5.10293,0 7.43426,1.5406 7.43426,4.91274 0,1.5633 -0.65558,3.38646 -1.45685,4.05145 -1.25448,1.04113 -1.09524,1.75553 1.14633,5.14278 1.43176,2.16353 2.25957,4.26204 1.83957,4.66336 -0.41999,0.40132 -1.27334,-0.10658 -1.89633,-1.12866 -2.73193,-4.482 -4.91229,-6.64167 -6.7053,-6.64167 -1.58198,0 -1.92741,0.71688 -1.92741,4 0,2.2 -0.45,4 -1,4 -0.59649,0 -1,-3.83333 -1,-9.5 z m 7.83748,-1.3784 c 0.73562,-0.46628 1.18562,-1.92189 1,-3.23469 -0.2651,-1.87492 -1.03461,-2.45412 -3.58749,-2.70027 -3.11724,-0.30056 -3.24999,-0.16781 -3.24999,3.25 0,3.03321 0.33475,3.56108 2.24999,3.54805 1.2375,-0.008 2.85187,-0.39682 3.58749,-0.86309 z m 7.66251,1.3784 c 0,-8.83333 0.14035,-9.5 1.99999,-9.5 1.85965,0 2,0.66667 2,9.5 0,8.83333 -0.14035,9.5 -2,9.5 -1.85964,0 -1.99999,-0.66667 -1.99999,-9.5 z m 15.49998,0 c 0,-5.66667 0.40351,-9.5 1,-9.5 0.55,0 1,1.8 1,4 0,2.2 0.22617,4 0.5026,4 0.27643,0 2.1288,-1.8 4.11636,-4 4.96155,-5.49184 6.4932,-5.06322 1.90698,0.53365 -4.04987,4.94233 -4.08063,4.69863 1.35115,10.70592 1.36241,1.50676 2.12953,3.08176 1.70472,3.5 -0.42481,0.41824 -2.74525,-1.48957 -5.15653,-4.23957 l -4.38415,-5 -0.0206,4.75 c -0.0113,2.6125 -0.47053,4.75 -1.02053,4.75 -0.59649,0 -1,-3.83333 -1,-9.5 z m 18.29902,7.9969 c -3.3992,-2.3809 -4.69587,-7.61134 -2.93294,-11.83065 1.68103,-4.02327 4.17862,-5.66625 8.61362,-5.66625 4.79475,0 8.02028,3.82063 8.02028,9.5 0,3.54097 -0.56136,5.15227 -2.45455,7.04545 -2.84676,2.84678 -7.92686,3.27655 -11.24641,0.95145 z m 10.14426,-2.71941 c 3.71401,-5.30249 0.82212,-12.77749 -4.94329,-12.77749 -4.01318,0 -6.5,2.8694 -6.5,7.5 0,4.6306 2.48682,7.5 6.5,7.5 2.36599,0 3.85573,-0.66979 4.94329,-2.22251 z m 5.5567,3.22251 c 0,-0.55 0.85186,-1 1.89301,-1 2.53106,0 3.10699,-1.86883 3.10699,-10.08179 0,-3.94547 0.4297,-6.91821 1,-6.91821 1.69458,0 1.22214,14.23783 -0.5567,16.77749 -1.5604,2.22778 -5.4433,3.09983 -5.4433,1.22251 z m 11.99999,-8.5 v -9.5 h 4.5 c 2.475,0 4.5,0.45 4.5,1 0,0.55 -1.575,1 -3.5,1 -3.22222,0 -3.5,0.2381 -3.5,3 0,2.65329 0.33989,3 2.94098,3 1.61754,0 3.2191,0.45 3.55902,1 0.3678,0.59512 -0.82295,1 -2.94098,1 -3.40078,0 -3.55902,0.15561 -3.55902,3.5 0,3.41667 0.0952,3.5 4,3.5 2.2,0 4,0.45 4,1 0,0.55 -2.25,1 -5,1 h -5 z m 13.99999,0.059 c 0,-7.00376 0.33567,-9.559 1.25572,-9.559 0.69065,0 3.27815,3.36537 5.75,7.47859 2.47185,4.11323 4.83177,7.48823 5.24427,7.5 0.4125,0.0118 0.75,-3.35359 0.75,-7.47859 0,-4.33333 0.42222,-7.5 1,-7.5 0.59649,0 1,3.83333 1,9.5 0,12.03139 -1.114,12.27702 -7.9367,1.75 l -5.02289,-7.75 -0.0202,7.19098 c -0.0111,3.95504 -0.4702,7.4691 -1.0202,7.80902 -0.64003,0.39556 -1,-2.82295 -1,-8.94098 z m 17.99999,8.441 c 0,-0.55 0.45,-1 1,-1 0.57778,0 1,-3.16667 1,-7.5 0,-4.33333 -0.42222,-7.5 -1,-7.5 -0.55,0 -1,-0.45 -1,-1 0,-0.55 1.35,-1 3,-1 1.65,0 3,0.45 3,1 0,0.55 -0.45,1 -1,1 -0.57778,0 -1,3.16667 -1,7.5 0,4.33333 0.42222,7.5 1,7.5 0.55,0 1,0.45 1,1 0,0.55 -1.35,1 -3,1 -1.65,0 -3,-0.45 -3,-1 z m -137.9999,-22 c 0.5887,-1.1 1.50835,-2 2.04366,-2 0.53914,0 0.41615,0.89212 -0.27573,2 -0.68696,1.1 -1.60661,2 -2.04366,2 -0.43705,0 -0.31297,-0.9 0.27573,-2 z m 32.58342,0.35687 c -0.34679,-0.90372 -0.40553,-1.86813 -0.13053,-2.14313 0.275,-0.275 0.7912,0.25884 1.1471,1.1863 0.60075,1.56553 0.7919,1.55788 2.66904,-0.10687 1.97652,-1.75287 1.99543,-1.74261 0.84127,0.45683 -1.38553,2.64035 -3.63104,2.94138 -4.52688,0.60687 z m 107.92203,-0.363 c 0.99854,-1.10337 2.03241,-1.78925 2.29749,-1.52417 0.67193,0.67194 -1.82222,3.5303 -3.08047,3.5303 -0.5679,0 -0.21556,-0.90276 0.78298,-2.00613 z M 101.12273,310.85983 c -4.276708,-1.00972 -7.978846,-3.74255 -10.959304,-8.08987 -1.987798,-2.89941 -2.283328,-4.3815 -1.980178,-9.93043 0.650239,-11.90186 6.374705,-16.44271 23.063552,-18.29484 l 9.89771,-1.09845 -0.62305,-3.54216 c -0.34267,-1.9482 -1.55006,-4.32967 -2.68308,-5.29217 -2.56674,-2.18045 -10.59093,-2.33074 -17.26117,-0.32329 l -4.740578,1.4267 -1.350449,-3.23208 c -3.225477,-7.71965 -3.109907,-8.22515 2.189809,-9.57867 13.692408,-3.49697 26.264068,-3.09687 32.972808,1.04936 6.01643,3.71837 7.3511,8.45505 7.3511,26.08885 0,14.2299 0.17634,15.77359 2.07805,18.19123 2.0146,2.56115 2.02742,2.79429 0.41964,7.63486 -1.23517,3.71876 -2.15653,4.99304 -3.61018,4.99304 -3.22094,0 -8.51914,-2.63601 -10.24196,-5.09568 l -1.61585,-2.30695 -2.87906,2.75832 c -2.89493,2.77353 -10.66841,5.73243 -14.55955,5.54195 -1.15008,-0.0563 -3.6108,-0.46117 -5.46826,-0.89972 z m 14.32882,-12.41326 c 4.25514,-1.77792 5.59942,-4.25642 5.2911,-9.75536 l -0.24274,-4.3293 -5.05719,-0.29557 c -6.77648,-0.39606 -10.44967,2.28752 -10.42748,7.61815 0.0173,4.14967 0.62045,5.35826 3.48468,6.98247 2.59171,1.46967 2.93261,1.45886 6.95163,-0.22039 z m 167.94372,12.38915 c -4.19714,-1.29192 -8.1551,-5.4484 -9.37696,-9.84725 -0.58533,-2.10725 -1.00968,-17.91555 -1.01292,-37.7341 l -0.006,-34.10755 6.14668,-0.64245 c 3.38068,-0.35335 7.20568,-0.64246 8.5,-0.64246 h 2.35331 l 0.0153,33.75 c 0.008,18.5625 0.34592,34.26713 0.74999,34.89918 0.40408,0.63206 1.82478,1.30706 3.15711,1.5 1.97975,0.28671 2.69128,1.32048 3.89372,5.65709 0.88053,3.17562 1.10705,5.67054 0.56412,6.21347 -1.38697,1.38697 -11.48886,2.03016 -14.98478,0.95407 z m 31.87956,0.10274 c -12.98539,-3.27641 -17.63504,-20.51986 -8.04065,-29.81913 4.19712,-4.068 9.57271,-5.92868 19.67385,-6.80982 l 8.09173,-0.70585 v -3.37088 c 0,-7.07234 -7.27918,-9.26947 -19.72914,-5.95501 l -5.22917,1.39212 -1.69963,-5.39186 c -0.9348,-2.96552 -1.48249,-5.609 -1.21709,-5.8744 0.2654,-0.2654 3.38336,-1.24387 6.9288,-2.17437 9.0334,-2.37083 21.24892,-2.21769 26.96416,0.33802 9.26674,4.14386 10.87882,8.42449 10.93817,29.04463 0.0389,13.52882 0.25498,15.46109 1.91416,17.12027 1.76811,1.76811 1.78429,2.15043 0.29615,7 -1.27954,4.16979 -1.99161,5.12973 -3.80516,5.12973 -3.51412,0 -6.94197,-1.63836 -9.80845,-4.68801 -2.41539,-2.56973 -2.72998,-2.66062 -3.65158,-1.05496 -2.48885,4.33625 -14.59426,7.59377 -21.62615,5.81952 z m 15.82706,-13.36078 c 3.11623,-2.09489 3.42273,-2.75799 3.69777,-8 l 0.29991,-5.71577 h -4.59956 c -5.05785,0 -9.91345,2.02846 -10.87906,4.5448 -1.24744,3.25081 -0.56472,6.60257 1.83337,9.00065 3.05231,3.05232 5.30141,3.09203 9.64757,0.17032 z M 0,280.8181 v -29.04381 l 7.2499949,0.29381 c 7.0824351,0.28702 7.2573151,0.35737 7.5664251,3.04381 0.174029,1.5125 0.537919,2.75 0.808639,2.75 0.27071,0 2.153318,-1.32757 4.183567,-2.95015 7.556775,-6.0394 17.803897,-5.86104 23.720963,0.41288 l 3.053008,3.23713 3.802777,-3.28725 c 8.677934,-7.50148 22.425055,-5.89713 26.164892,3.05358 1.035309,2.47783 1.409179,9.31299 1.486299,27.17222 l 0.10304,23.86159 h -8.319824 -8.319824 l -0.26998,-21.92161 c -0.17384,-14.1152 -0.66257,-22.39466 -1.372449,-23.25 -1.843339,-2.2211 -5.830326,-1.50947 -8.934484,1.59469 l -2.923078,2.92307 v 20.61586 20.61586 l -8.749994,-0.28894 -8.749994,-0.28893 -0.269979,-21.92161 c -0.17383,-14.1152 -0.66257,-22.39466 -1.372439,-23.25 -1.912189,-2.30405 -5.879126,-1.51683 -8.956364,1.77737 l -2.901208,3.10575 v 20.39425 20.39424 H 8.499994 0 Z m 150.99989,0.0438 v -29 h 7.42054 7.42054 l 0.65891,3 c 0.7801,3.55177 1.53987,3.71841 4.09265,0.89762 6.48303,-7.16367 18.24119,-7.2677 24.4325,-0.21618 2.76137,3.14503 3.33623,3.42416 4.13018,2.00545 1.89032,-3.37782 9.72129,-6.96172 15.39073,-7.04367 5.8392,-0.0844 9.04514,1.5915 12.89211,6.73936 1.93133,2.58442 2.08162,4.33638 2.37517,27.68821 l 0.31338,24.92921 h -8.56338 -8.56337 v -21.27749 c 0,-17.63933 -0.26618,-21.65752 -1.5567,-23.5 -2.29435,-3.27565 -5.73604,-2.79207 -9.3397,1.31229 l -3.10359,3.53479 v 19.96521 19.9652 h -8.49999 -8.5 v -21.92857 c 0,-18.60173 -0.23841,-22.16698 -1.57143,-23.5 -2.58831,-2.58831 -5.95,-1.88051 -9.32497,1.96337 l -3.10359,3.53479 v 19.96521 19.9652 h -8.49999 -8.5 z m 91.99994,0 v -29 h 8.49999 8.5 v 29 29 h -8.5 -8.49999 z m 3.5,-41.20782 c -3.26792,-1.87415 -4.43639,-4.05818 -4.43639,-8.29218 0,-6.11911 3.61156,-9.5 10.14813,-9.5 4.41325,0 7.36997,2.20257 8.80868,6.56191 1.37814,4.17582 0.0161,8.59868 -3.38075,10.97792 -2.47285,1.73205 -8.32827,1.8647 -11.13967,0.25235 z M 139.4999,231.19793 c -1.1,-0.29463 -3.01073,-1.46754 -4.24606,-2.60647 -1.23532,-1.13893 -2.53079,-1.78603 -2.87882,-1.43801 -1.75175,1.75176 -18.53451,-24.65352 -24.93199,-39.22692 -14.680625,-33.44238 -18.120923,-58.25644 -10.399418,-75.00848 4.690808,-10.17682 11.074638,-15.784342 23.411498,-20.564492 5.20867,-2.01819 11.48656,-5.00495 13.95087,-6.63724 4.49893,-2.97997 10.17763,-10.34759 11.24093,-14.58415 0.3134,-1.24865 0.94151,-2.27027 1.39583,-2.27027 1.38083,0 -3.16117,12.22225 -6.2011,16.68677 -3.16129,4.64274 -7.61379,8.44406 -18.941,16.170842 -4.17959,2.85108 -9.04687,6.98514 -10.81617,9.1868 -10.54432,13.12102 -12.756069,32.2018 -6.0521,52.2118 3.40545,10.16463 7.74297,17.94971 17.88892,32.1075 7.22994,10.08875 10.07862,16.80406 10.07862,23.75877 0,2.06772 0.47998,4.05613 1.06663,4.4187 0.58663,0.36257 6.32413,0.67743 12.74999,0.6997 15.32161,0.0531 19.56068,-1.45441 48.87152,-17.3798 22.95921,-12.47437 28.40035,-16.44654 31.6358,-23.09487 l 1.58952,-3.26621 -3.45676,-0.31037 c -3.81331,-0.34237 -3.91081,-0.47273 -2.42713,-3.24502 1.34129,-2.50622 5.1293,-4.32733 12.12986,-5.83151 9.33828,-2.00647 12.73577,-6.65727 11.39495,-15.59847 -1.50048,-10.00592 -11.69878,-19.38099 -19.55445,-17.97597 -7.327,1.31046 -18.04675,9.0968 -21.55303,15.65514 -2.49805,4.67249 -0.84548,7.03597 10.1926,14.57727 1.64272,1.12231 1.45084,1.22792 -1.63956,0.90238 -1.925,-0.20278 -4.2875,-0.7104 -5.25,-1.12806 -1.52556,-0.66198 -1.75,-0.15911 -1.75,3.92095 0,3.88991 -0.29076,4.62431 -1.72175,4.34873 -1.01947,-0.19634 -2.46998,-2.36766 -3.55614,-5.32333 -2.10954,-5.7405 -5.07859,-9.09098 -8.87423,-10.01429 -2.35091,-0.57187 -2.72876,-0.2962 -3.32693,2.42724 -1.08816,4.95436 -2.20579,4.43768 -2.79727,-1.29319 -0.30294,-2.93529 -1.75507,-7.71338 -3.22694,-10.61797 -2.47133,-4.87694 -2.58318,-5.61307 -1.46155,-9.61915 1.52564,-5.44904 2.96483,-4.72659 2.96483,1.48829 0,3.0647 0.89098,6.53261 2.51639,9.79437 2.2438,4.50273 3.06866,5.2281 7.61482,6.69634 6.78391,2.19096 6.74909,2.20277 6.2023,-2.10338 -0.6354,-5.0041 4.00956,-12.44065 9.37795,-15.01405 4.68559,-2.24608 4.65076,-3.80449 -0.27276,-12.2052 -1.99227,-3.39928 -3.37807,-6.42473 -3.07957,-6.72323 0.2985,-0.2985 3.19299,1.98519 6.4322,5.07487 3.23921,3.08969 6.40271,5.61761 7.03,5.61761 3.29171,0 2.46773,-11.57503 -1.39818,-19.64151 -3.61264,-7.53799 -9.55318,-12.49782 -19.49689,-16.278192 -4.63445,-1.76191 -9.77626,-4.33786 -11.42626,-5.72433 -2.25372,-1.89377 -2.50248,-2.38549 -1,-1.97667 1.1,0.2993 5.7892,1.0084 10.42046,1.57576 4.63126,0.56737 10.3693,1.97499 12.7512,3.12805 8.88439,4.30086 13.78771,13.785622 15.06201,29.135212 l 0.7663,9.23041 4.35323,0.74111 c 12.03682,2.0492 22.08065,13.54197 22.11921,25.31016 0.0263,8.04022 -1.56503,12.07055 -6.21014,15.72787 -2.28575,1.79967 -8.00485,7.11335 -12.70911,11.80817 -7.72244,7.70695 -10.83569,9.86032 -32.05317,22.17058 -40.20128,23.32454 -37.75794,22.22685 -49.99997,22.46276 -5.77499,0.11129 -11.39999,-0.0387 -12.49999,-0.33335 z m 41.90332,-4.81989 c 2.69684,-2.41683 7.64684,-5.65916 10.99999,-7.20519 26.87051,-12.38906 38.02233,-19.57415 49.73486,-32.04403 10.58868,-11.27336 15.36294,-23.35543 17.91986,-45.34931 1.92613,-16.568 -0.30774,-34.8356 -6.77682,-55.417612 -2.93264,-9.3305 -6.02916,-15.74506 -11.48449,-23.79052 -4.79492,-7.07149 -8.77386,-15.430331 -8.78701,-18.459485 -0.005,-1.2375 0.24481,-2.25 0.55597,-2.25 4.23259,0 17.49759,15.940595 24.63691,29.606245 9.19666,17.6037 13.32717,36.136142 13.23768,59.393762 -0.0493,12.81453 -0.45258,16.97268 -2.32763,24 -8.28043,31.03355 -29.47634,54.59944 -60.44315,67.20148 -7.11791,2.89666 -27.91546,8.83167 -30.66952,8.75219 -0.84754,-0.0245 0.63281,-1.95466 3.40335,-4.43753 z m -70.4788,-16.26613 c -10.12845,-9.52448 -31.172826,-37.37324 -36.747672,-48.6295 -4.925547,-9.94522 -7.807205,-20.62764 -9.319414,-34.54733 -1.857278,-17.09603 1.558289,-34.875742 9.970693,-51.902402 6.988095,-14.14387 23.346024,-31.237486 38.687253,-40.427189 6.23238,-3.733318 19.07613,-8.485423 20.11801,-7.443535 1.03801,1.03802 -3.88811,6.300102 -11.63338,12.426735 -10.67584,8.444774 -22.69755,21.620529 -28.379686,31.104029 -5.295646,8.83846 -10.588033,23.17536 -13.059221,35.377032 -2.023898,9.99314 -2.050528,29.43991 -0.0511,37.33206 2.078899,8.20593 8.329724,20.62063 14.94005,29.67225 4.825007,6.60697 10.401127,15.88788 23.454547,39.03785 4.58076,8.12389 2.13359,7.51057 -7.98006,-2 z m 25.6824,-3 c -0.29032,-0.9625 -1.91893,-13.84884 -3.61911,-28.63631 -1.7002,-14.78746 -3.51799,-29.13638 -4.03953,-31.88649 -1.6196,-8.54011 -1.12238,-9.73965 1.75224,-4.2272 l 2.60738,5 1.17927,-3.48216 1.17926,-3.48216 0.62783,5.3011 c 0.68045,5.74532 3.69771,11.55337 6.88926,13.26143 1.50147,0.80357 3.61278,0.63765 8.41002,-0.66091 4.8214,-1.30509 8.38365,-1.58126 14.40586,-1.11686 l 8.00058,0.61696 v -2.50082 c 0,-1.37545 -0.675,-4.11632 -1.5,-6.09082 -0.825,-1.97451 -1.5,-4.68051 -1.5,-6.01334 0,-3.18249 4.40429,-7.55996 7.19297,-7.14918 3.30594,0.48698 3.2214,2.40248 -0.16801,3.80642 -3.9722,1.64534 -4.63523,4.63784 -2.48421,11.21225 2.18053,6.66466 4.29514,10.87917 8.85509,17.64858 1.98228,2.94277 3.60415,6.3057 3.60415,7.47318 0,1.71452 -1.29795,0.84023 -6.75,-4.54679 -7.45292,-7.36404 -10.18127,-8.77688 -16.94907,-8.77688 -7.35658,0 -12.22875,2.01632 -18.03287,7.46282 l -5.36794,5.03718 2.04995,9.86008 c 1.12748,5.42304 2.04996,10.93554 2.04996,12.25 0,2.73235 0.30567,2.84235 3.31574,1.19323 1.30613,-0.71559 9.42067,-1.47718 20.18424,-1.89441 26.79918,-1.03882 38.49997,-4.36484 38.49997,-10.94386 0,-1.6854 0.64908,-4.31955 1.44241,-5.85366 2.05624,-3.97634 13.61737,-14.45159 14.72605,-13.34291 0.88484,0.88484 -2.80538,12.58933 -5.84508,18.53922 -2.00698,3.92845 -12.01391,10.10704 -21.13109,13.04698 -9.30414,3.00023 -10.47199,3.19392 -30.71993,5.09513 -9.84039,0.92398 -18.29712,2.28575 -21.90653,3.52757 -7.05054,2.42574 -6.31807,2.39704 -6.95886,0.27263 z M 173.04801,86.111908 c -2.92074,-3.53602 -5.55044,-10.24306 -4.84541,-12.35817 0.17591,-0.52773 2.00243,1.29424 4.05892,4.04883 5.12742,6.868 7.82387,8.1239 14.48835,6.74815 3.09153,-0.63819 5.24999,-1.61928 5.24999,-2.38629 0,-0.71639 0.95489,-1.30252 2.12197,-1.30252 1.97132,0 2.01678,0.15843 0.64036,2.23143 -0.81489,1.22728 -2.8835,2.51814 -4.59691,2.86858 -1.71342,0.35043 -4.23575,1.37129 -5.60518,2.26857 -4.26988,2.79773 -8.02153,2.10732 -11.51209,-2.11858 z m -34.75289,-17.20131 c -1.70515,-15.36459 0.49477,-21.723525 9.63187,-27.841198 8.50047,-5.691429 18.94478,-6.641896 36.57486,-3.328435 21.15916,3.976729 24.22151,3.769436 29.61535,-2.004681 1.58546,-1.69724 2.88265,-2.511164 2.88265,-1.808719 0,0.702445 -1.96875,3.163568 -4.375,5.469162 -7.98032,7.646495 -18.09022,9.175973 -36.12497,5.465176 -5.34609,-1.1 -10.90812,-1.99749 -12.36008,-1.994423 -5.4322,0.01148 -10.68602,2.277374 -14.78538,6.376736 -4.57066,4.570672 -5.73756,7.797182 -7.22792,19.985422 -0.52913,4.32725 -1.35915,8.26482 -1.8445,8.75017 -0.50992,0.50992 -1.34867,-3.31859 -1.98688,-9.06921 z m 62.95474,9.2628 c -1.2375,-0.24782 -2.25,-0.86929 -2.25,-1.38104 0,-0.99372 1.21434,-1.25229 4.62828,-0.98553 1.72176,0.13454 2.2607,-0.56059 2.82161,-3.63931 0.92236,-5.06256 3.70295,-8.91197 10.19089,-14.10812 11.06545,-8.862253 13.16153,-20.331321 5.09036,-27.852765 -4.07148,-3.794184 -26.23454,-18.551215 -33.07952,-22.0256486 -6.03036,-3.06094 -15.32714,-4.048063 -23.6516,-2.511302 -3.02499,0.558439 -5.65724,0.860396 -5.84942,0.671015 -0.19219,-0.189381 2.05781,-1.5764 4.99999,-3.082266 4.14746,-2.122747 7.18547,-2.83917798 13.52082,-3.18850898 20.59001,-1.13533402 40.71987,11.64277158 50.32444,31.94513758 3.22216,6.811061 3.65134,10.723937 1.88992,17.230826 -1.96215,7.248452 -1.9253,7.170122 -2.74739,5.839952 -0.52668,-0.85218 -2.69633,0.3924 -7.19621,4.12794 -8.75647,7.26913 -9.91724,8.7353 -11.33648,14.31907 -1.27412,5.01278 -2.29163,5.65471 -7.35569,4.64055 z m 0.82258,-15.94635 c -3.11156,-3.9557 -2.73608,-6.33439 0.51924,-3.28945 1.4255,1.33337 3.01633,3.21181 3.53518,4.17431 1.53815,2.85338 -1.66357,2.15462 -4.05442,-0.88486 z m 6.42741,-6.47869 c -5.97216,-4.464912 -6.42816,-5.247492 -2,-3.432342 4.53457,1.858772 6.90381,3.863312 6.36607,5.386142 -0.20134,0.57018 -2.16607,-0.30903 -4.36607,-1.9538 z"
       id="path1" />
  </g>
</svg>
